<svg width="57" height="61" viewBox="0 0 57 61" fill="none" xmlns="http://www.w3.org/2000/svg">
<g clip-path="url(#clip0_1_213)">
<path d="M47.5357 31.2482V41.8955C47.5357 44.5517 46.5927 46.8229 44.7065 48.7091C42.8203 50.5952 40.5491 51.5383 37.8929 51.5383H10.0357C7.37948 51.5383 5.10828 50.5952 3.22212 48.7091C1.33596 46.8229 0.392876 44.5517 0.392876 41.8955V14.0383C0.392876 11.3821 1.33596 9.11087 3.22212 7.22472C5.10828 5.33855 7.37948 4.39547 10.0357 4.39547H37.8929C39.2991 4.39547 40.6049 4.67449 41.8103 5.23253C42.1451 5.38878 42.346 5.64547 42.413 6.00262C42.4799 6.38208 42.3795 6.70574 42.1116 6.9736L40.471 8.61422C40.2478 8.83744 39.9911 8.94905 39.7009 8.94905C39.6339 8.94905 39.5335 8.92672 39.3996 8.88208C38.8862 8.74815 38.3839 8.68119 37.8929 8.68119H10.0357C8.56252 8.68119 7.30136 9.20574 6.25225 10.2548C5.20314 11.304 4.67859 12.5651 4.67859 14.0383V41.8955C4.67859 43.3687 5.20314 44.6298 6.25225 45.679C7.30136 46.7281 8.56252 47.2526 10.0357 47.2526H37.8929C39.3661 47.2526 40.6273 46.7281 41.6764 45.679C42.7255 44.6298 43.25 43.3687 43.25 41.8955V33.391C43.25 33.1008 43.3505 32.8553 43.5514 32.6544L45.6942 30.5115C45.9174 30.2883 46.1741 30.1767 46.4643 30.1767C46.5982 30.1767 46.7322 30.2102 46.8661 30.2772C47.3125 30.4557 47.5357 30.7794 47.5357 31.2482ZM55.2701 14.8754L28.0156 42.1298C27.4799 42.6656 26.8438 42.9334 26.1072 42.9334C25.3706 42.9334 24.7344 42.6656 24.1987 42.1298L9.80136 27.7325C9.26564 27.1968 8.99779 26.5607 8.99779 25.824C8.99779 25.0874 9.26564 24.4513 9.80136 23.9156L13.4844 20.2325C14.0201 19.6968 14.6563 19.429 15.3929 19.429C16.1295 19.429 16.7656 19.6968 17.3014 20.2325L26.1072 29.0383L47.7701 7.37539C48.3058 6.83967 48.942 6.57182 49.6786 6.57182C50.4152 6.57182 51.0514 6.83967 51.5871 7.37539L55.2701 11.0584C55.8058 11.5941 56.0737 12.2303 56.0737 12.9669C56.0737 13.7035 55.8058 14.3397 55.2701 14.8754Z" fill="#333333"/>
</g>
<defs>
<clipPath id="clip0_1_213">
<rect width="55.72" height="60" fill="white" transform="matrix(1 0 0 -1 0.390015 60.1099)"/>
</clipPath>
</defs>
</svg>
