<?xml version="1.0" ?><!DOCTYPE svg  PUBLIC '-//W3C//DTD SVG 1.1//EN'  'http://www.w3.org/Graphics/SVG/1.1/DTD/svg11.dtd'><svg xmlns="http://www.w3.org/2000/svg" xmlns:xlink="http://www.w3.org/1999/xlink"><symbol style="enable-background:new 0 0 1706.035 1687.226" viewBox="0 0 1706.035 1687.226" xml:space="preserve" id="buy" xmlns="http://www.w3.org/2000/svg">
    <g id="acart">
        <path d="M1690.842,225.329c-12.553-15.147-31.203-23.104-50.875-23.104H307V65.158c0-36.49-28.342-64.933-64.832-64.933H66.07   C29.583,0.226,0,30.235,0,66.726s29.583,66.5,66.07,66.5H175v1301.248c0,0.479,0.612,0.941,0.619,1.418   c-0.09,2.758,0.066,5.51,0.066,8.289c0,134.123,109.255,243.226,243.377,243.226c111.221,0,205.312-74.181,234.179-177.181h341.893   c28.867,103,122.824,177.181,234.045,177.181c134.122,0,243.238-109.109,243.238-243.23c0-134.123-109.116-243.178-243.238-243.178   c-111.221,0-205.174,78.228-234.045,177.228H653.242c-28.867-99-123.441-177.224-234.658-177.224   c-39.959,0-75.584,9.691-111.584,26.838v-131.518c10,1.839,20.96,4.903,31.199,4.903H1397.95   c84.879,0,156.989-60.083,179.442-147.979c0.346-1.346,0.646-3.222,0.903-4.59l126.586-669.039   C1708.541,260.286,1703.392,240.479,1690.842,225.329z M1229.18,1333.085c61.257,0,111.098,49.838,111.098,111.096   c0,61.26-49.841,111.096-111.098,111.096c-61.258,0-111.098-49.836-111.098-111.096   C1118.082,1382.923,1167.922,1333.085,1229.18,1333.085z M419.2,1333.085c61.258,0,111.095,49.838,111.095,111.096   c0,61.26-49.837,111.096-111.095,111.096c-61.26,0-111.101-49.836-111.101-111.096C308.1,1382.923,357.94,1333.085,419.2,1333.085z    M1448.91,922.553c-3.568,12.727-16.202,45.673-50.96,45.673H338.199c-16.802,0-31.199-14.891-31.199-32.363V334.226h1253.224   L1448.91,922.553z"/>
    </g>
    <g id="aLayer_1"/>
</symbol><symbol viewBox="0 0 40 40" id="certification" xmlns="http://www.w3.org/2000/svg">
    <defs>
        <style>.bcls-1,.bcls-2{fill:#307fdd;fill-rule:evenodd;}.bcls-2{opacity:0.1;}</style>
    </defs>
    <path class="bcls-1" d="M1501,70h4a1,1,0,0,1,0,2h-4A1,1,0,0,1,1501,70Zm0,4h4a1,1,0,0,1,0,2h-4A1,1,0,0,1,1501,74Zm0,8h4a1,1,0,0,1,0,2h-4A1,1,0,0,1,1501,82Zm0-4h4a1,1,0,0,1,0,2h-4A1,1,0,0,1,1501,78Zm15-7h-4V96.5a3.5,3.5,0,0,1-3.5,3.5,3.415,3.415,0,0,1-.5-0.05V100h-27V99.95a3.415,3.415,0,0,1-.5.05,3.5,3.5,0,0,1-3.5-3.5V92a1,1,0,0,1,2,0v4.5a1.5,1.5,0,0,0,1.5,1.5,1.472,1.472,0,0,0,.5-0.1V98h24.35a3.436,3.436,0,0,1-.35-1.5V93h-9a1,1,0,0,1,0-2h11v5.5a1.5,1.5,0,0,0,3,0v-33a3.436,3.436,0,0,1,.35-1.5H1487v0.1a1.472,1.472,0,0,0-.5-0.1,1.5,1.5,0,0,0-1.5,1.5V64a1,1,0,0,1-2,0V63.5a3.5,3.5,0,0,1,3.5-3.5,3.415,3.415,0,0,1,.5.05V60h26v0.05a3.415,3.415,0,0,1,.5-0.05,3.5,3.5,0,0,1,3.5,3.5V71h-1Zm-1-7.5a1.5,1.5,0,0,0-3,0V68h0v1h3V63.5ZM1497,77a9.989,9.989,0,0,1-4,7.988V92a0.964,0.964,0,0,1-.08.4,1,1,0,0,1-1.31.525l-4.6-1.852-4.62,1.852a1,1,0,0,1-1.31-.525A0.964,0.964,0,0,1,1481,92V84.988A10,10,0,1,1,1497,77Zm-14,13.54,3.61-1.446a0.982,0.982,0,0,1,.4-0.076,1,1,0,0,1,.41.076l3.58,1.442V86.162a9.969,9.969,0,0,1-8,0v4.378ZM1479,77a8,8,0,1,0,8-8A8,8,0,0,0,1479,77Zm14,0a6,6,0,1,1-6-6A6,6,0,0,1,1493,77Zm-10,0a4,4,0,1,0,4-4A4,4,0,0,0,1483,77Z" transform="translate(-1477 -60)"/>
    <path data-name="Rounded Rectangle 31" class="bcls-2" d="M1508,99h-2V92h-3V65a3,3,0,0,1,3-3h5V96A3,3,0,0,1,1508,99Zm-19.5-17a3.5,3.5,0,1,1,3.5-3.5A3.5,3.5,0,0,1,1488.5,82ZM1503,97l1,1-25,1-1-1V95h25v2Z" transform="translate(-1477 -60)"/>
</symbol><symbol viewBox="0 0 57 61" id="check" xmlns="http://www.w3.org/2000/svg">
    <g clip-path="url(#cclip0_1_213)">
        <path d="M47.5357 31.2482V41.8955C47.5357 44.5517 46.5927 46.8229 44.7065 48.7091C42.8203 50.5952 40.5491 51.5383 37.8929 51.5383H10.0357C7.37948 51.5383 5.10828 50.5952 3.22212 48.7091C1.33596 46.8229 0.392876 44.5517 0.392876 41.8955V14.0383C0.392876 11.3821 1.33596 9.11087 3.22212 7.22472C5.10828 5.33855 7.37948 4.39547 10.0357 4.39547H37.8929C39.2991 4.39547 40.6049 4.67449 41.8103 5.23253C42.1451 5.38878 42.346 5.64547 42.413 6.00262C42.4799 6.38208 42.3795 6.70574 42.1116 6.9736L40.471 8.61422C40.2478 8.83744 39.9911 8.94905 39.7009 8.94905C39.6339 8.94905 39.5335 8.92672 39.3996 8.88208C38.8862 8.74815 38.3839 8.68119 37.8929 8.68119H10.0357C8.56252 8.68119 7.30136 9.20574 6.25225 10.2548C5.20314 11.304 4.67859 12.5651 4.67859 14.0383V41.8955C4.67859 43.3687 5.20314 44.6298 6.25225 45.679C7.30136 46.7281 8.56252 47.2526 10.0357 47.2526H37.8929C39.3661 47.2526 40.6273 46.7281 41.6764 45.679C42.7255 44.6298 43.25 43.3687 43.25 41.8955V33.391C43.25 33.1008 43.3505 32.8553 43.5514 32.6544L45.6942 30.5115C45.9174 30.2883 46.1741 30.1767 46.4643 30.1767C46.5982 30.1767 46.7322 30.2102 46.8661 30.2772C47.3125 30.4557 47.5357 30.7794 47.5357 31.2482ZM55.2701 14.8754L28.0156 42.1298C27.4799 42.6656 26.8438 42.9334 26.1072 42.9334C25.3706 42.9334 24.7344 42.6656 24.1987 42.1298L9.80136 27.7325C9.26564 27.1968 8.99779 26.5607 8.99779 25.824C8.99779 25.0874 9.26564 24.4513 9.80136 23.9156L13.4844 20.2325C14.0201 19.6968 14.6563 19.429 15.3929 19.429C16.1295 19.429 16.7656 19.6968 17.3014 20.2325L26.1072 29.0383L47.7701 7.37539C48.3058 6.83967 48.942 6.57182 49.6786 6.57182C50.4152 6.57182 51.0514 6.83967 51.5871 7.37539L55.2701 11.0584C55.8058 11.5941 56.0737 12.2303 56.0737 12.9669C56.0737 13.7035 55.8058 14.3397 55.2701 14.8754Z"/>
    </g>
    <defs>
        <clipPath id="cclip0_1_213">
            <rect width="55.72" height="60" transform="matrix(1 0 0 -1 0.390015 60.1099)"/>
        </clipPath>
    </defs>
</symbol><symbol id="close" style="enable-background:new 0 0 128 128" viewBox="0 0 128 128" xml:space="preserve" xmlns="http://www.w3.org/2000/svg">
    <style type="text/css">.dst0{fill-rule:evenodd;clip-rule:evenodd;}.dst1{fill-rule:evenodd;clip-rule:evenodd;fill:#7ACED7;}</style>
    <path class="dst0" d="M64,4c33.1,0,60,26.9,60,60s-26.9,60-60,60S4,97.1,4,64S30.9,4,64,4L64,4z M64,0  C28.7,0,0,28.7,0,64c0,35.3,28.7,64,64,64s64-28.7,64-64C128,28.7,99.3,0,64,0L64,0z M47,64L33.4,77.6c-4.7,4.7-4.7,12.3,0,17  c4.7,4.7,12.3,4.7,17,0L64,81l13.6,13.6c4.7,4.7,12.3,4.7,17,0c4.7-4.7,4.7-12.3,0-17L81,64l13.6-13.6c4.7-4.7,4.7-12.3,0-17  c-4.7-4.7-12.3-4.7-17,0L64,47L50.4,33.4c-4.7-4.7-12.3-4.7-17,0c-4.7,4.7-4.7,12.3,0,17L47,64L47,64z M36.2,80.4  c-3.1,3.1-3.1,8.2,0,11.3c3.1,3.1,8.2,3.1,11.3,0L64,75.3l16.4,16.4c3.1,3.1,8.2,3.1,11.3,0c3.1-3.1,3.1-8.2,0-11.3L75.3,64  l16.4-16.4c3.1-3.1,3.1-8.2,0-11.3c-3.1-3.1-8.2-3.1-11.3,0L64,52.7L47.6,36.2c-3.1-3.1-8.2-3.1-11.3,0c-3.1,3.1-3.1,8.2,0,11.3  L52.7,64L36.2,80.4z" id="dXMLID_8_"/>
    <path class="dst1" d="M36.2,80.4L52.7,64L36.2,47.6c-3.1-3.1-3.1-8.2,0-11.3c3.1-3.1,8.2-3.1,11.3,0L64,52.7l16.4-16.4  c3.1-3.1,8.2-3.1,11.3,0c3.1,3.1,3.1,8.2,0,11.3L75.3,64l16.4,16.4c3.1,3.1,3.1,8.2,0,11.3c-3.1,3.1-8.2,3.1-11.3,0L64,75.3  L47.6,91.8c-3.1,3.1-8.2,3.1-11.3,0C33.1,88.6,33.1,83.6,36.2,80.4z" id="dXMLID_1_"/>
</symbol><symbol viewBox="0 0 448 512" id="flask" xmlns="http://www.w3.org/2000/svg">
    <path d="M437.2 403.5L319.1 215L319.1 64h7.1c13.25 0 23.1-10.75 23.1-24l-.0002-16c0-13.25-10.75-24-23.1-24H120C106.8 0 96.01 10.75 96.01 24l-.0002 16c0 13.25 10.75 24 23.1 24h7.1L128 215l-117.2 188.5C-18.48 450.6 15.27 512 70.89 512h306.2C432.7 512 466.5 450.5 437.2 403.5zM137.1 320l48.15-77.63C189.8 237.3 191.9 230.8 191.9 224l.0651-160h63.99l-.06 160c0 6.875 2.25 13.25 5.875 18.38L309.9 320H137.1z"/>
</symbol><symbol viewBox="0 0 512 512" id="industry" xmlns="http://www.w3.org/2000/svg">
    <path d="M512 152v295.1c0 17.67-14.33 32-32 32H32c-17.67 0-32-14.33-32-32v-384c0-17.67 14.33-32 32-32h96c17.67 0 32 14.33 32 32v160l139.1-92.24C315.1 121.6 336 133.1 336 152V223.1l139.1-92.24C491.1 121.6 512 133.1 512 152z"/>
</symbol><symbol viewBox="0 0 65 61" id="money" xmlns="http://www.w3.org/2000/svg">
    <g clip-path="url(#gclip0_1_202)">
        <path d="M25.8114 38.6812H38.6686V35.4669H34.3829V20.4669H30.5659L25.6105 25.054L28.1887 27.7325C29.1262 26.9066 29.74 26.2705 30.0302 25.824H30.0971V35.4669H25.8114V38.6812ZM42.2512 25.3553C42.2512 25.3553 42.3683 25.7571 42.6027 26.5607C42.8371 27.3642 42.9543 28.5473 42.9543 30.1098C42.9543 31.6723 42.7199 33.2571 42.2512 34.8642C41.7824 36.4714 41.1183 37.9669 40.259 39.3508C39.3996 40.7348 38.2668 41.862 36.8605 42.7325C35.4543 43.6031 33.9141 44.0383 32.24 44.0383C30.5659 44.0383 29.0257 43.6031 27.6195 42.7325C26.2132 41.862 25.0804 40.7348 24.221 39.3508C23.3616 37.9669 22.6976 36.4714 22.2288 34.8642C21.7601 33.2571 21.5257 31.6723 21.5257 30.1098C21.5257 28.5473 21.7601 26.9624 22.2288 25.3553C22.6976 23.7482 23.3616 22.2526 24.221 20.8687C25.0804 19.4848 26.2132 18.3575 27.6195 17.487C29.0257 16.6165 30.5659 16.1812 32.24 16.1812C33.9141 16.1812 35.4543 16.6165 36.8605 17.487C38.2668 18.3575 39.3996 19.4848 40.259 20.8687C41.1183 22.2526 41.7824 23.7482 42.2512 25.3553ZM60.0971 38.6812V21.5383C57.7311 21.5383 55.711 20.7013 54.0369 19.0272C52.3628 17.3531 51.5257 15.333 51.5257 12.9669H12.9543C12.9543 15.333 12.1172 17.3531 10.4431 19.0272C8.76901 20.7013 6.74892 21.5383 4.38285 21.5383V38.6812C6.74892 38.6812 8.76901 39.5182 10.4431 41.1923C12.1172 42.8665 12.9543 44.8865 12.9543 47.2526H51.5257C51.5257 44.8865 52.3628 42.8665 54.0369 41.1923C55.711 39.5182 57.7311 38.6812 60.0971 38.6812ZM64.3829 10.824V49.3955C64.3829 49.9758 64.1708 50.4781 63.7467 50.9022C63.3226 51.3263 62.8204 51.5383 62.24 51.5383H2.23999C1.65964 51.5383 1.15741 51.3263 0.733298 50.9022C0.309191 50.4781 0.0971375 49.9758 0.0971375 49.3955V10.824C0.0971375 10.2437 0.309191 9.74146 0.733298 9.31735C1.15741 8.89324 1.65964 8.68119 2.23999 8.68119H62.24C62.8204 8.68119 63.3226 8.89324 63.7467 9.31735C64.1708 9.74146 64.3829 10.2437 64.3829 10.824Z"/>
    </g>
    <defs>
        <clipPath id="gclip0_1_202">
            <rect width="64.3" height="60" transform="matrix(1 0 0 -1 0.0899963 60.1099)"/>
        </clipPath>
    </defs>
</symbol><symbol viewBox="0 0 512 512" id="wallet" xmlns="http://www.w3.org/2000/svg">
    <title/>
    <path d="M95.5,104h320a87.73,87.73,0,0,1,11.18.71,66,66,0,0,0-77.51-55.56L86,94.08l-.3,0a66,66,0,0,0-41.07,26.13A87.57,87.57,0,0,1,95.5,104Z"/>
    <path d="M415.5,128H95.5a64.07,64.07,0,0,0-64,64V384a64.07,64.07,0,0,0,64,64h320a64.07,64.07,0,0,0,64-64V192A64.07,64.07,0,0,0,415.5,128ZM368,320a32,32,0,1,1,32-32A32,32,0,0,1,368,320Z"/>
    <path d="M32,259.5V160c0-21.67,12-58,53.65-65.87C121,87.5,156,87.5,156,87.5s23,16,4,16S141.5,128,160,128s0,23.5,0,23.5L85.5,236Z"/>
</symbol></svg>