<?xml version="1.0" ?><!DOCTYPE svg  PUBLIC '-//W3C//DTD SVG 1.1//EN'  'http://www.w3.org/Graphics/SVG/1.1/DTD/svg11.dtd'><svg viewBox="0 0 1706.035 1687.226" xmlns="http://www.w3.org/2000/svg" xmlns:xlink="http://www.w3.org/1999/xlink"><style>:root>svg{display:none}:root>svg:target{display:block}</style><svg style="enable-background:new 0 0 1706.035 1687.226" xml:space="preserve" viewBox="0 0 1706.035 1687.226" id="buy" xmlns="http://www.w3.org/2000/svg"><path d="M1690.842 225.329c-12.553-15.147-31.203-23.104-50.875-23.104H307V65.158C307 28.668 278.658.225 242.168.225H66.07C29.583.226 0 30.235 0 66.726s29.583 66.5 66.07 66.5H175v1301.248c0 .479.612.941.619 1.418-.09 2.758.066 5.51.066 8.289 0 134.123 109.255 243.226 243.377 243.226 111.221 0 205.312-74.181 234.179-177.181h341.893c28.867 103 122.824 177.181 234.045 177.181 134.122 0 243.238-109.109 243.238-243.23 0-134.123-109.116-243.178-243.238-243.178-111.221 0-205.174 78.228-234.045 177.228H653.242c-28.867-99-123.441-177.224-234.658-177.224-39.959 0-75.584 9.691-111.584 26.838v-131.518c10 1.839 20.96 4.903 31.199 4.903H1397.95c84.879 0 156.989-60.083 179.442-147.979.346-1.346.646-3.222.903-4.59l126.586-669.039c3.66-19.332-1.489-39.139-14.039-54.289zM1229.18 1333.085c61.257 0 111.098 49.838 111.098 111.096 0 61.26-49.841 111.096-111.098 111.096-61.258 0-111.098-49.836-111.098-111.096 0-61.258 49.84-111.096 111.098-111.096zm-809.98 0c61.258 0 111.095 49.838 111.095 111.096 0 61.26-49.837 111.096-111.095 111.096-61.26 0-111.101-49.836-111.101-111.096.001-61.258 49.841-111.096 111.101-111.096zm1029.71-410.532c-3.568 12.727-16.202 45.673-50.96 45.673H338.199c-16.802 0-31.199-14.891-31.199-32.363V334.226h1253.224L1448.91 922.553z"/></svg><svg data-name="Group 12 copy" viewBox="0 0 40 40" id="certification" xmlns="http://www.w3.org/2000/svg"><path d="M1501 70h4a1 1 0 0 1 0 2h-4a1 1 0 0 1 0-2Zm0 4h4a1 1 0 0 1 0 2h-4a1 1 0 0 1 0-2Zm0 8h4a1 1 0 0 1 0 2h-4a1 1 0 0 1 0-2Zm0-4h4a1 1 0 0 1 0 2h-4a1 1 0 0 1 0-2Zm15-7h-4v25.5a3.5 3.5 0 0 1-3.5 3.5 3.415 3.415 0 0 1-.5-.05v.05h-27v-.05a3.415 3.415 0 0 1-.5.05 3.5 3.5 0 0 1-3.5-3.5V92a1 1 0 0 1 2 0v4.5a1.5 1.5 0 0 0 1.5 1.5 1.472 1.472 0 0 0 .5-.1v.1h24.35a3.436 3.436 0 0 1-.35-1.5V93h-9a1 1 0 0 1 0-2h11v5.5a1.5 1.5 0 0 0 3 0v-33a3.436 3.436 0 0 1 .35-1.5H1487v.1a1.472 1.472 0 0 0-.5-.1 1.5 1.5 0 0 0-1.5 1.5v.5a1 1 0 0 1-2 0v-.5a3.5 3.5 0 0 1 3.5-3.5 3.415 3.415 0 0 1 .5.05V60h26v.05a3.415 3.415 0 0 1 .5-.05 3.5 3.5 0 0 1 3.5 3.5V71h-1Zm-1-7.5a1.5 1.5 0 0 0-3 0V69h3v-5.5ZM1497 77a9.989 9.989 0 0 1-4 7.988V92a.964.964 0 0 1-.08.4 1 1 0 0 1-1.31.525l-4.6-1.852-4.62 1.852a1 1 0 0 1-1.31-.525.964.964 0 0 1-.08-.4v-7.012A10 10 0 1 1 1497 77Zm-14 13.54 3.61-1.446a.982.982 0 0 1 .4-.076 1 1 0 0 1 .41.076l3.58 1.442v-4.374a9.969 9.969 0 0 1-8 0v4.378ZM1479 77a8 8 0 1 0 8-8 8 8 0 0 0-8 8Zm14 0a6 6 0 1 1-6-6 6 6 0 0 1 6 6Zm-10 0a4 4 0 1 0 4-4 4 4 0 0 0-4 4Z" transform="translate(-1477 -60)" style="fill:#307fdd;fill-rule:evenodd"/><path data-name="Rounded Rectangle 31" d="M1508 99h-2v-7h-3V65a3 3 0 0 1 3-3h5v34a3 3 0 0 1-3 3Zm-19.5-17a3.5 3.5 0 1 1 3.5-3.5 3.5 3.5 0 0 1-3.5 3.5Zm14.5 15 1 1-25 1-1-1v-3h25v2Z" transform="translate(-1477 -60)" style="opacity:.1;fill:#307fdd;fill-rule:evenodd"/></svg><svg fill="none" viewBox="0 0 57 61" id="check" xmlns="http://www.w3.org/2000/svg"><g clip-path="url(#ca)"><path d="M47.536 31.248v10.647c0 2.657-.943 4.928-2.83 6.814-1.886 1.886-4.157 2.83-6.813 2.83H10.036c-2.657 0-4.928-.944-6.814-2.83-1.886-1.886-2.83-4.157-2.83-6.814V14.038c0-2.656.944-4.927 2.83-6.813 1.886-1.886 4.157-2.83 6.814-2.83h27.857c1.406 0 2.712.28 3.917.838.335.156.536.412.603.77.067.38-.033.703-.301.97L40.47 8.615c-.223.223-.48.335-.77.335-.067 0-.168-.022-.301-.067a5.956 5.956 0 0 0-1.507-.2H10.036c-1.473 0-2.735.524-3.784 1.573s-1.573 2.31-1.573 3.783v27.857c0 1.474.524 2.735 1.573 3.784 1.05 1.05 2.31 1.574 3.784 1.574h27.857c1.473 0 2.734-.525 3.783-1.574 1.05-1.05 1.574-2.31 1.574-3.784v-8.504c0-.29.1-.536.301-.737l2.143-2.143c.223-.223.48-.334.77-.334.134 0 .268.033.402.1.447.179.67.502.67.971Zm7.734-16.373L28.016 42.13c-.536.536-1.172.803-1.909.803-.736 0-1.373-.267-1.908-.803L9.8 27.732c-.535-.535-.803-1.171-.803-1.908 0-.737.268-1.373.803-1.908l3.683-3.683c.536-.536 1.172-.804 1.909-.804.736 0 1.373.268 1.908.804l8.806 8.805L47.77 7.375c.536-.535 1.172-.803 1.909-.803.736 0 1.372.268 1.908.803l3.683 3.683c.536.536.804 1.172.804 1.909 0 .736-.268 1.373-.804 1.908Z" fill="#333"/></g><defs><clipPath id="ca"><path fill="#fff" transform="matrix(1 0 0 -1 .39 60.11)" d="M0 0h55.72v60H0z"/></clipPath></defs></svg><svg style="enable-background:new 0 0 128 128" viewBox="0 0 128 128" xml:space="preserve" id="close" xmlns="http://www.w3.org/2000/svg"><path d="M64 4c33.1 0 60 26.9 60 60s-26.9 60-60 60S4 97.1 4 64 30.9 4 64 4zm0-4C28.7 0 0 28.7 0 64s28.7 64 64 64 64-28.7 64-64S99.3 0 64 0zM47 64 33.4 77.6c-4.7 4.7-4.7 12.3 0 17 4.7 4.7 12.3 4.7 17 0L64 81l13.6 13.6c4.7 4.7 12.3 4.7 17 0 4.7-4.7 4.7-12.3 0-17L81 64l13.6-13.6c4.7-4.7 4.7-12.3 0-17-4.7-4.7-12.3-4.7-17 0L64 47 50.4 33.4c-4.7-4.7-12.3-4.7-17 0-4.7 4.7-4.7 12.3 0 17L47 64zM36.2 80.4c-3.1 3.1-3.1 8.2 0 11.3 3.1 3.1 8.2 3.1 11.3 0L64 75.3l16.4 16.4c3.1 3.1 8.2 3.1 11.3 0 3.1-3.1 3.1-8.2 0-11.3L75.3 64l16.4-16.4c3.1-3.1 3.1-8.2 0-11.3-3.1-3.1-8.2-3.1-11.3 0L64 52.7 47.6 36.2c-3.1-3.1-8.2-3.1-11.3 0-3.1 3.1-3.1 8.2 0 11.3L52.7 64 36.2 80.4z" style="fill-rule:evenodd;clip-rule:evenodd"/><path d="M36.2 80.4 52.7 64 36.2 47.6c-3.1-3.1-3.1-8.2 0-11.3 3.1-3.1 8.2-3.1 11.3 0L64 52.7l16.4-16.4c3.1-3.1 8.2-3.1 11.3 0 3.1 3.1 3.1 8.2 0 11.3L75.3 64l16.4 16.4c3.1 3.1 3.1 8.2 0 11.3-3.1 3.1-8.2 3.1-11.3 0L64 75.3 47.6 91.8c-3.1 3.1-8.2 3.1-11.3 0-3.2-3.2-3.2-8.2-.1-11.4z" style="fill-rule:evenodd;clip-rule:evenodd;fill:#7aced7"/></svg><svg viewBox="0 0 448 512" id="flask" xmlns="http://www.w3.org/2000/svg"><path d="M437.2 403.5 319.1 215V64h7.1c13.25 0 23.1-10.75 23.1-24V24c0-13.25-10.75-24-23.1-24H120c-13.2 0-23.99 10.75-23.99 24v16c0 13.25 10.75 24 23.1 24h7.1L128 215 10.8 403.5C-18.48 450.6 15.27 512 70.89 512h306.2c55.61 0 89.41-61.5 60.11-108.5zM137.1 320l48.15-77.63c4.55-5.07 6.65-11.57 6.65-18.37l.065-160h63.99l-.06 160c0 6.875 2.25 13.25 5.875 18.38L309.9 320H137.1z"/></svg><svg viewBox="0 0 512 512" id="industry" xmlns="http://www.w3.org/2000/svg"><path d="M512 152v295.1c0 17.67-14.33 32-32 32H32c-17.67 0-32-14.33-32-32v-384c0-17.67 14.33-32 32-32h96c17.67 0 32 14.33 32 32v160l139.1-92.24c16-9.26 36.9 2.24 36.9 21.14v71.1l139.1-92.24c16-9.26 36.9 2.24 36.9 21.14z"/></svg><svg fill="none" viewBox="0 0 65 61" id="money" xmlns="http://www.w3.org/2000/svg"><g clip-path="url(#ga)"><path d="M25.811 38.681H38.67v-3.214h-4.286v-15h-3.817l-4.956 4.587 2.579 2.679c.937-.826 1.551-1.463 1.841-1.909h.067v9.643h-4.286v3.214Zm16.44-13.326.352 1.206c.234.803.351 1.986.351 3.549 0 1.562-.234 3.147-.703 4.754a18.033 18.033 0 0 1-1.992 4.487 10.36 10.36 0 0 1-3.398 3.382 8.61 8.61 0 0 1-4.621 1.305 8.61 8.61 0 0 1-4.62-1.305 10.36 10.36 0 0 1-3.399-3.382 18.03 18.03 0 0 1-1.992-4.487 16.924 16.924 0 0 1-.703-4.754c0-1.563.234-3.148.703-4.755a18.03 18.03 0 0 1 1.992-4.486 10.36 10.36 0 0 1 3.398-3.382 8.61 8.61 0 0 1 4.621-1.306 8.61 8.61 0 0 1 4.62 1.306 10.36 10.36 0 0 1 3.399 3.382 18.034 18.034 0 0 1 1.992 4.486Zm17.846 13.326V21.538c-2.366 0-4.386-.837-6.06-2.51-1.674-1.675-2.511-3.695-2.511-6.061H12.954c0 2.366-.837 4.386-2.51 6.06-1.675 1.674-3.695 2.511-6.061 2.511v17.143c2.366 0 4.386.837 6.06 2.511 1.674 1.675 2.511 3.694 2.511 6.06h38.572c0-2.366.837-4.386 2.51-6.06 1.675-1.674 3.695-2.51 6.061-2.51Zm4.286-27.857v38.572a2.06 2.06 0 0 1-.636 1.506 2.06 2.06 0 0 1-1.507.636h-60a2.06 2.06 0 0 1-1.507-.636 2.06 2.06 0 0 1-.636-1.507V10.825c0-.58.212-1.083.636-1.507a2.06 2.06 0 0 1 1.507-.636h60c.58 0 1.083.212 1.507.636.424.424.636.927.636 1.507Z" fill="#333"/></g><defs><clipPath id="ga"><path fill="#fff" transform="matrix(1 0 0 -1 .09 60.11)" d="M0 0h64.3v60H0z"/></clipPath></defs></svg><svg viewBox="0 0 512 512" id="wallet" xmlns="http://www.w3.org/2000/svg"><path d="M95.5 104h320a87.73 87.73 0 0 1 11.18.71 66 66 0 0 0-77.51-55.56L86 94.08h-.3a66 66 0 0 0-41.07 26.13A87.57 87.57 0 0 1 95.5 104ZM415.5 128h-320a64.07 64.07 0 0 0-64 64v192a64.07 64.07 0 0 0 64 64h320a64.07 64.07 0 0 0 64-64V192a64.07 64.07 0 0 0-64-64ZM368 320a32 32 0 1 1 32-32 32 32 0 0 1-32 32Z"/><path d="M32 259.5V160c0-21.67 12-58 53.65-65.87C121 87.5 156 87.5 156 87.5s23 16 4 16-18.5 24.5 0 24.5 0 23.5 0 23.5L85.5 236Z"/></svg></svg>