<svg width="65" height="61" viewBox="0 0 65 61" fill="none" xmlns="http://www.w3.org/2000/svg">
<g clip-path="url(#clip0_1_202)">
<path d="M25.8114 38.6812H38.6686V35.4669H34.3829V20.4669H30.5659L25.6105 25.054L28.1887 27.7325C29.1262 26.9066 29.74 26.2705 30.0302 25.824H30.0971V35.4669H25.8114V38.6812ZM42.2512 25.3553C42.2512 25.3553 42.3683 25.7571 42.6027 26.5607C42.8371 27.3642 42.9543 28.5473 42.9543 30.1098C42.9543 31.6723 42.7199 33.2571 42.2512 34.8642C41.7824 36.4714 41.1183 37.9669 40.259 39.3508C39.3996 40.7348 38.2668 41.862 36.8605 42.7325C35.4543 43.6031 33.9141 44.0383 32.24 44.0383C30.5659 44.0383 29.0257 43.6031 27.6195 42.7325C26.2132 41.862 25.0804 40.7348 24.221 39.3508C23.3616 37.9669 22.6976 36.4714 22.2288 34.8642C21.7601 33.2571 21.5257 31.6723 21.5257 30.1098C21.5257 28.5473 21.7601 26.9624 22.2288 25.3553C22.6976 23.7482 23.3616 22.2526 24.221 20.8687C25.0804 19.4848 26.2132 18.3575 27.6195 17.487C29.0257 16.6165 30.5659 16.1812 32.24 16.1812C33.9141 16.1812 35.4543 16.6165 36.8605 17.487C38.2668 18.3575 39.3996 19.4848 40.259 20.8687C41.1183 22.2526 41.7824 23.7482 42.2512 25.3553ZM60.0971 38.6812V21.5383C57.7311 21.5383 55.711 20.7013 54.0369 19.0272C52.3628 17.3531 51.5257 15.333 51.5257 12.9669H12.9543C12.9543 15.333 12.1172 17.3531 10.4431 19.0272C8.76901 20.7013 6.74892 21.5383 4.38285 21.5383V38.6812C6.74892 38.6812 8.76901 39.5182 10.4431 41.1923C12.1172 42.8665 12.9543 44.8865 12.9543 47.2526H51.5257C51.5257 44.8865 52.3628 42.8665 54.0369 41.1923C55.711 39.5182 57.7311 38.6812 60.0971 38.6812ZM64.3829 10.824V49.3955C64.3829 49.9758 64.1708 50.4781 63.7467 50.9022C63.3226 51.3263 62.8204 51.5383 62.24 51.5383H2.23999C1.65964 51.5383 1.15741 51.3263 0.733298 50.9022C0.309191 50.4781 0.0971375 49.9758 0.0971375 49.3955V10.824C0.0971375 10.2437 0.309191 9.74146 0.733298 9.31735C1.15741 8.89324 1.65964 8.68119 2.23999 8.68119H62.24C62.8204 8.68119 63.3226 8.89324 63.7467 9.31735C64.1708 9.74146 64.3829 10.2437 64.3829 10.824Z" fill="#333333"/>
</g>
<defs>
<clipPath id="clip0_1_202">
<rect width="64.3" height="60" fill="white" transform="matrix(1 0 0 -1 0.0899963 60.1099)"/>
</clipPath>
</defs>
</svg>
